<svg width="29" height="29" viewBox="0 0 29 29" fill="none" xmlns="http://www.w3.org/2000/svg">
<path d="M22.7285 1.90332C23.9325 0.699312 25.8868 0.699312 27.0908 1.90332C28.2945 3.10736 28.2947 5.06172 27.0908 6.26562L18.8613 14.499L27.0967 22.7275V22.7285C28.3007 23.9325 28.3007 25.8868 27.0967 27.0908C25.8926 28.2945 23.9383 28.2947 22.7344 27.0908L14.5 18.8613L6.27246 27.0967H6.27148C5.06748 28.3007 3.11319 28.3007 1.90918 27.0967C0.705494 25.8926 0.705279 23.9383 1.90918 22.7344L10.1377 14.5L1.90332 6.27246V6.27148C0.699312 5.06748 0.699312 3.11319 1.90332 1.90918C3.10736 0.705495 5.06172 0.705279 6.26562 1.90918L6.26465 1.91016L14.499 10.1377L22.7275 1.90332H22.7285Z" fill="#AA0707" stroke="#AA0707" stroke-width="2"/>
</svg>
