<svg width="35" height="35" viewBox="0 0 35 35" fill="none" xmlns="http://www.w3.org/2000/svg">
<path d="M32.8193 13.1251H33.3594C34.2686 13.1251 35 12.3937 35 11.4846V1.6411C35 0.978035 34.6035 0.37649 33.9883 0.123568C33.373 -0.129354 32.6689 0.0141964 32.1973 0.479026L28.6631 4.01994C25.6348 1.51122 21.7383 0.000524991 17.5 0.000524991C8.68164 0.000524991 1.3877 6.52181 0.177734 15.005C0.00683593 16.2012 0.833984 17.3086 2.03027 17.4795C3.22656 17.6504 4.33398 16.8164 4.50488 15.627C5.41406 9.26294 10.8896 4.37539 17.5 4.37539C20.5352 4.37539 23.3242 5.40075 25.5459 7.13019L22.3535 10.3225C21.8818 10.7941 21.7451 11.4982 21.998 12.1134C22.251 12.7287 22.8525 13.1251 23.5156 13.1251H32.8193ZM34.8291 19.995C35 18.7988 34.166 17.6914 32.9766 17.5205C31.7871 17.3496 30.6729 18.1836 30.502 19.373C29.5928 25.7302 24.1172 30.6178 17.5068 30.6178C14.4717 30.6178 11.6826 29.5924 9.46094 27.863L12.6465 24.6775C13.1182 24.2059 13.2549 23.5018 13.002 22.8866C12.749 22.2713 12.1475 21.8749 11.4844 21.8749H1.64062C0.731445 21.8749 0 22.6063 0 23.5154V33.3589C0 34.022 0.396484 34.6235 1.01172 34.8764C1.62695 35.1294 2.33105 34.9858 2.80273 34.521L6.34375 30.9801C9.36523 33.4888 13.2617 34.9995 17.5 34.9995C26.3184 34.9995 33.6123 28.4782 34.8223 19.995H34.8291Z" fill="white"/>
</svg>
