<svg width="43" height="44" viewBox="0 0 43 44" fill="none" xmlns="http://www.w3.org/2000/svg">
<path d="M3.05916 0.538448C2.35737 -0.179483 1.22255 -0.179483 0.528214 0.538448C-0.166117 1.25638 -0.173583 2.41729 0.520748 3.13522L39.9408 43.4616C40.6426 44.1795 41.7775 44.1795 42.4718 43.4616C43.1661 42.7436 43.1736 41.5827 42.4718 40.8724L35.2746 33.5098C35.4762 33.3265 35.6778 33.1432 35.8719 32.9599C39.366 29.6376 41.7028 25.6737 42.8152 22.9471C43.0616 22.3437 43.0616 21.6716 42.8152 21.0682C41.7028 18.3416 39.366 14.3701 35.8719 11.0554C32.3555 7.71776 27.525 4.8995 21.4925 4.8995C17.2519 4.8995 13.6085 6.28953 10.5923 8.2753L3.05916 0.538448ZM15.266 13.0335C17.0204 11.7504 19.1781 10.9943 21.5 10.9943C27.4354 10.9943 32.2509 15.9205 32.2509 21.9924C32.2509 24.3676 31.5118 26.5673 30.2575 28.3697L27.6669 25.7195C28.615 24.0851 28.9361 22.0764 28.4209 20.0906C27.3981 16.1802 23.4635 13.8584 19.641 14.9047C18.9989 15.0804 18.3942 15.34 17.8492 15.6685L15.2585 13.0182L15.266 13.0335ZM24.2848 32.6162C23.3963 32.8606 22.4631 32.9905 21.5 32.9905C15.5646 32.9905 10.7491 28.0642 10.7491 21.9924C10.7491 21.0071 10.876 20.0524 11.1149 19.1436L5.17949 13.0717C2.74559 15.8823 1.07323 18.861 0.184782 21.0529C-0.0615939 21.6563 -0.0615939 22.3284 0.184782 22.9318C1.2972 25.6584 3.63404 29.6299 7.12809 32.9446C10.6445 36.2822 15.475 39.1005 21.5075 39.1005C24.2923 39.1005 26.8232 38.4971 29.0854 37.5272L24.2923 32.6239L24.2848 32.6162Z" fill="white"/>
</svg>
