<svg width="43" height="33" viewBox="0 0 43 33" fill="none" xmlns="http://www.w3.org/2000/svg">
<path d="M21.5 0C15.4696 0 10.6408 2.71071 7.12562 5.93705C3.63278 9.14129 1.29675 12.9643 0.184718 15.594C-0.0615725 16.1759 -0.0615725 16.8241 0.184718 17.406C1.29675 20.0357 3.63278 23.8661 7.12562 27.0629C10.6408 30.2819 15.4696 33 21.5 33C27.5304 33 32.3592 30.2893 35.8744 27.0629C39.3672 23.8587 41.7032 20.0357 42.8153 17.406C43.0616 16.8241 43.0616 16.1759 42.8153 15.594C41.7032 12.9643 39.3672 9.13393 35.8744 5.93705C32.3592 2.71808 27.5304 0 21.5 0ZM10.7528 16.5C10.7528 13.6868 11.8851 10.9888 13.9006 8.99962C15.9161 7.01039 18.6497 5.89286 21.5 5.89286C24.3503 5.89286 27.0839 7.01039 29.0994 8.99962C31.1149 10.9888 32.2472 13.6868 32.2472 16.5C32.2472 19.3132 31.1149 22.0112 29.0994 24.0004C27.0839 25.9896 24.3503 27.1071 21.5 27.1071C18.6497 27.1071 15.9161 25.9896 13.9006 24.0004C11.8851 22.0112 10.7528 19.3132 10.7528 16.5ZM21.5 11.7857C21.5 14.3859 19.358 16.5 16.7235 16.5C15.8652 16.5 15.0591 16.279 14.3576 15.8813C14.283 16.6842 14.3501 17.5092 14.574 18.3268C15.5965 22.0982 19.5297 24.3375 23.3509 23.3284C27.1721 22.3192 29.441 18.4373 28.4185 14.6658C27.508 11.2996 24.2764 9.15603 20.8731 9.45067C21.2686 10.1357 21.5 10.9313 21.5 11.7857Z" fill="white"/>
</svg>
